<mxfile host="Electron" modified="2023-04-24T18:52:57.873Z" agent="Mozilla/5.0 (Windows NT 10.0; Win64; x64) AppleWebKit/537.36 (KHTML, like Gecko) draw.io/21.1.2 Chrome/106.0.5249.199 Electron/21.4.3 Safari/537.36" etag="TeqZ4pHpVNSWggjZQcmj" version="21.1.2" type="device">
  <diagram name="Page-1" id="Ozj8X10Tl0C6zUT-z2db">
    <mxGraphModel dx="2274" dy="1003" grid="1" gridSize="10" guides="1" tooltips="1" connect="1" arrows="1" fold="1" page="1" pageScale="1" pageWidth="827" pageHeight="1169" math="0" shadow="0">
      <root>
        <mxCell id="0" />
        <mxCell id="1" parent="0" />
        <mxCell id="RzuMJQj23AJZ52e0sUBI-25" value="" style="rounded=0;whiteSpace=wrap;html=1;fillColor=#ffe6cc;strokeColor=#d79b00;shadow=0;glass=1;" vertex="1" parent="1">
          <mxGeometry x="620" y="290" width="160" height="100" as="geometry" />
        </mxCell>
        <mxCell id="RzuMJQj23AJZ52e0sUBI-24" value="" style="rounded=0;whiteSpace=wrap;html=1;fillColor=#dae8fc;strokeColor=#6c8ebf;shadow=0;glass=1;" vertex="1" parent="1">
          <mxGeometry x="160" y="290" width="460" height="100" as="geometry" />
        </mxCell>
        <mxCell id="RzuMJQj23AJZ52e0sUBI-23" value="" style="rounded=0;whiteSpace=wrap;html=1;fillColor=#fff2cc;strokeColor=#d6b656;shadow=0;glass=1;" vertex="1" parent="1">
          <mxGeometry x="-300" y="290" width="460" height="100" as="geometry" />
        </mxCell>
        <mxCell id="RzuMJQj23AJZ52e0sUBI-19" value="" style="edgeStyle=orthogonalEdgeStyle;rounded=0;orthogonalLoop=1;jettySize=auto;html=1;" edge="1" parent="1" source="RzuMJQj23AJZ52e0sUBI-1" target="RzuMJQj23AJZ52e0sUBI-5">
          <mxGeometry relative="1" as="geometry" />
        </mxCell>
        <mxCell id="RzuMJQj23AJZ52e0sUBI-1" value="Begin" style="rounded=1;whiteSpace=wrap;html=1;fillColor=#e1d5e7;strokeColor=#9673a6;" vertex="1" parent="1">
          <mxGeometry x="-440" y="310" width="120" height="60" as="geometry" />
        </mxCell>
        <mxCell id="RzuMJQj23AJZ52e0sUBI-2" value="End" style="rounded=1;whiteSpace=wrap;html=1;fillColor=#e1d5e7;strokeColor=#9673a6;" vertex="1" parent="1">
          <mxGeometry x="800" y="310" width="120" height="60" as="geometry" />
        </mxCell>
        <mxCell id="RzuMJQj23AJZ52e0sUBI-13" value="" style="edgeStyle=orthogonalEdgeStyle;rounded=0;orthogonalLoop=1;jettySize=auto;html=1;" edge="1" parent="1" source="RzuMJQj23AJZ52e0sUBI-5" target="RzuMJQj23AJZ52e0sUBI-6">
          <mxGeometry relative="1" as="geometry" />
        </mxCell>
        <mxCell id="RzuMJQj23AJZ52e0sUBI-5" value="create airflow connection" style="rounded=0;whiteSpace=wrap;html=1;fillColor=#fff2cc;strokeColor=#d6b656;" vertex="1" parent="1">
          <mxGeometry x="-280" y="310" width="120" height="60" as="geometry" />
        </mxCell>
        <mxCell id="RzuMJQj23AJZ52e0sUBI-14" value="" style="edgeStyle=orthogonalEdgeStyle;rounded=0;orthogonalLoop=1;jettySize=auto;html=1;" edge="1" parent="1" source="RzuMJQj23AJZ52e0sUBI-6" target="RzuMJQj23AJZ52e0sUBI-8">
          <mxGeometry relative="1" as="geometry" />
        </mxCell>
        <mxCell id="RzuMJQj23AJZ52e0sUBI-6" value="create database" style="rounded=0;whiteSpace=wrap;html=1;fillColor=#fff2cc;strokeColor=#d6b656;" vertex="1" parent="1">
          <mxGeometry x="-130" y="310" width="120" height="60" as="geometry" />
        </mxCell>
        <mxCell id="RzuMJQj23AJZ52e0sUBI-15" value="" style="edgeStyle=orthogonalEdgeStyle;rounded=0;orthogonalLoop=1;jettySize=auto;html=1;" edge="1" parent="1" source="RzuMJQj23AJZ52e0sUBI-7" target="RzuMJQj23AJZ52e0sUBI-10">
          <mxGeometry relative="1" as="geometry" />
        </mxCell>
        <mxCell id="RzuMJQj23AJZ52e0sUBI-7" value="download datasets" style="rounded=0;whiteSpace=wrap;html=1;fillColor=#dae8fc;strokeColor=#6c8ebf;" vertex="1" parent="1">
          <mxGeometry x="180" y="310" width="120" height="60" as="geometry" />
        </mxCell>
        <mxCell id="RzuMJQj23AJZ52e0sUBI-21" value="" style="edgeStyle=orthogonalEdgeStyle;rounded=0;orthogonalLoop=1;jettySize=auto;html=1;" edge="1" parent="1" source="RzuMJQj23AJZ52e0sUBI-8" target="RzuMJQj23AJZ52e0sUBI-7">
          <mxGeometry relative="1" as="geometry" />
        </mxCell>
        <mxCell id="RzuMJQj23AJZ52e0sUBI-8" value="create table" style="rounded=0;whiteSpace=wrap;html=1;fillColor=#fff2cc;strokeColor=#d6b656;" vertex="1" parent="1">
          <mxGeometry x="20" y="310" width="120" height="60" as="geometry" />
        </mxCell>
        <mxCell id="RzuMJQj23AJZ52e0sUBI-16" value="" style="edgeStyle=orthogonalEdgeStyle;rounded=0;orthogonalLoop=1;jettySize=auto;html=1;" edge="1" parent="1" source="RzuMJQj23AJZ52e0sUBI-10" target="RzuMJQj23AJZ52e0sUBI-11">
          <mxGeometry relative="1" as="geometry" />
        </mxCell>
        <mxCell id="RzuMJQj23AJZ52e0sUBI-10" value="copy data to tables" style="rounded=0;whiteSpace=wrap;html=1;fillColor=#dae8fc;strokeColor=#6c8ebf;" vertex="1" parent="1">
          <mxGeometry x="330" y="310" width="120" height="60" as="geometry" />
        </mxCell>
        <mxCell id="RzuMJQj23AJZ52e0sUBI-17" value="" style="edgeStyle=orthogonalEdgeStyle;rounded=0;orthogonalLoop=1;jettySize=auto;html=1;" edge="1" parent="1" source="RzuMJQj23AJZ52e0sUBI-11" target="RzuMJQj23AJZ52e0sUBI-12">
          <mxGeometry relative="1" as="geometry" />
        </mxCell>
        <mxCell id="RzuMJQj23AJZ52e0sUBI-11" value="run queries" style="rounded=0;whiteSpace=wrap;html=1;fillColor=#dae8fc;strokeColor=#6c8ebf;" vertex="1" parent="1">
          <mxGeometry x="480" y="310" width="120" height="60" as="geometry" />
        </mxCell>
        <mxCell id="RzuMJQj23AJZ52e0sUBI-18" value="" style="edgeStyle=orthogonalEdgeStyle;rounded=0;orthogonalLoop=1;jettySize=auto;html=1;" edge="1" parent="1" source="RzuMJQj23AJZ52e0sUBI-12" target="RzuMJQj23AJZ52e0sUBI-2">
          <mxGeometry relative="1" as="geometry" />
        </mxCell>
        <mxCell id="RzuMJQj23AJZ52e0sUBI-12" value="output results" style="rounded=0;whiteSpace=wrap;html=1;fillColor=#ffe6cc;strokeColor=#d79b00;" vertex="1" parent="1">
          <mxGeometry x="640" y="310" width="120" height="60" as="geometry" />
        </mxCell>
      </root>
    </mxGraphModel>
  </diagram>
</mxfile>
